<?xml version="1.0" standalone="no"?>
<!DOCTYPE svg PUBLIC "-//W3C//DTD SVG 20010904//EN"
 "http://www.w3.org/TR/2001/REC-SVG-20010904/DTD/svg10.dtd">
<svg version="1.0" xmlns="http://www.w3.org/2000/svg"
 width="419.000000pt" height="419.000000pt" viewBox="0 0 419.000000 419.000000"
 preserveAspectRatio="xMidYMid meet">
<metadata>
Created by potrace 1.11, written by Peter Selinger 2001-2013
</metadata>
<g transform="translate(0.000000,419.000000) scale(0.100000,-0.100000)"
fill="#000000" stroke="none">
<path d="M1985 4115 c-62 -30 -78 -31 -99 -2 -15 22 -16 22 -31 3 -27 -35 -12
-72 35 -89 12 -4 12 -6 -2 -6 -9 -1 -20 4 -23 9 -10 16 -35 12 -35 -6 0 -9 10
-29 21 -46 18 -25 27 -29 53 -25 17 2 39 7 49 12 13 5 17 2 17 -13 0 -24 36
-72 55 -72 7 0 19 -7 26 -16 9 -11 -3 -8 -38 10 -29 14 -57 35 -63 46 -12 22
-36 27 -42 9 -3 -8 -12 -8 -33 3 -43 20 -136 10 -167 -20 -14 -12 -32 -22 -41
-22 -23 0 -87 -59 -87 -80 0 -10 -9 -28 -19 -41 -18 -21 -22 -23 -42 -11 -18
12 -23 12 -30 0 -12 -18 -11 -30 4 -49 20 -25 46 -30 83 -14 30 12 34 12 34
-1 0 -8 -7 -17 -15 -20 -20 -8 -19 -30 1 -38 25 -10 42 -7 58 10 9 8 16 11 16
6 0 -5 -10 -17 -22 -26 -23 -15 -23 -16 -4 -31 27 -21 43 -19 72 10 14 14 27
25 29 25 3 0 5 -16 5 -35 0 -28 7 -40 40 -66 22 -18 40 -38 40 -45 0 -7 11
-26 25 -42 30 -36 31 -42 4 -42 -26 0 -105 -54 -120 -81 -6 -11 -8 -28 -4 -36
3 -10 -9 -33 -33 -62 -45 -54 -93 -123 -115 -166 -14 -29 -14 -36 10 -107 l25
-76 -27 -40 c-45 -68 -130 -86 -172 -38 -45 53 -42 107 17 246 82 195 76 322
-18 417 -52 54 -93 74 -161 80 -80 7 -128 -9 -191 -65 -32 -28 -77 -57 -109
-68 -66 -23 -102 -58 -121 -115 -10 -29 -35 -64 -72 -102 -32 -32 -58 -62 -58
-68 0 -6 -15 -16 -34 -24 -57 -24 -81 -78 -56 -124 7 -13 4 -29 -10 -57 -36
-70 -17 -155 49 -222 34 -34 53 -38 111 -23 19 5 61 11 93 14 50 5 57 3 57
-12 0 -10 16 -34 35 -54 31 -32 34 -39 23 -56 -19 -31 3 -68 47 -77 58 -11 40
-19 -44 -19 -73 0 -83 -3 -123 -32 -55 -40 -91 -105 -85 -153 4 -33 1 -38 -34
-58 -41 -24 -62 -55 -74 -112 -4 -19 -19 -51 -32 -72 -20 -29 -23 -44 -18 -70
9 -41 22 -58 41 -51 19 7 18 0 -7 -50 -23 -46 -29 -161 -10 -180 6 -6 11 -20
11 -30 0 -16 5 -18 33 -13 l33 6 -4 -67 c-5 -79 17 -176 54 -242 l24 -44 -34
-37 c-19 -21 -42 -50 -51 -64 -10 -14 -24 -26 -31 -26 -8 0 -14 -4 -14 -10 0
-5 -6 -10 -14 -10 -38 0 -64 -88 -35 -117 7 -7 4 -22 -10 -49 -37 -68 -22
-148 39 -211 47 -48 67 -54 130 -37 30 8 64 14 75 14 11 0 33 7 48 15 26 13
28 13 23 -3 -3 -9 -10 -53 -16 -97 -18 -144 -68 -254 -135 -297 -42 -28 -43
-39 -6 -77 121 -124 322 -143 640 -61 53 13 137 16 169 6 13 -4 22 -15 22 -28
0 -17 -5 -19 -32 -15 -18 3 -44 8 -57 12 -19 7 -22 5 -20 -10 5 -26 85 -65
132 -65 37 0 145 33 205 63 68 35 170 27 215 -16 25 -24 55 -88 59 -127 5 -40
32 -31 39 13 13 80 65 138 137 151 37 6 109 -7 157 -29 61 -29 149 -55 187
-55 21 0 56 9 77 20 56 28 70 77 16 52 -36 -16 -65 -15 -72 3 -7 21 -2 25 44
35 39 9 70 4 273 -39 159 -34 323 -26 418 22 48 23 122 90 122 110 0 7 -14 21
-31 32 -67 44 -121 159 -139 296 -6 41 -13 89 -16 108 l-7 34 29 -21 c17 -12
54 -23 89 -26 33 -4 64 -11 69 -16 19 -19 48 -9 90 30 71 67 93 170 50 238
-11 16 -12 27 -4 41 25 47 -4 112 -54 125 -14 3 -39 26 -56 51 -17 24 -40 51
-51 59 -20 13 -20 16 -5 58 23 70 26 128 10 192 -8 32 -13 60 -10 63 2 2 18
-3 35 -11 16 -9 34 -16 38 -16 16 0 34 57 40 126 l6 72 -42 45 c-32 35 -38 46
-26 51 22 8 20 19 -26 130 -44 108 -58 131 -103 160 -25 16 -27 20 -13 28 10
5 17 16 17 24 0 23 -35 87 -62 110 -23 22 -108 64 -128 64 -7 0 -5 9 4 22 9
12 16 29 16 38 0 16 -95 80 -118 80 -15 0 -15 -3 4 54 13 39 14 50 4 56 -10 6
-7 16 13 39 34 41 43 90 27 149 -17 60 -37 84 -64 76 -17 -5 -19 -4 -8 7 6 7
12 23 12 35 0 12 6 26 13 32 10 9 17 4 31 -19 26 -44 72 -69 129 -69 45 0 107
-24 107 -41 0 -4 -11 -14 -24 -23 -36 -23 -41 -51 -16 -93 l21 -36 -46 -47
c-56 -57 -71 -105 -45 -147 26 -44 44 -54 112 -64 35 -5 79 -12 98 -15 47 -8
93 30 126 101 29 61 30 99 4 149 -14 28 -17 44 -10 57 19 34 11 70 -21 100
-17 16 -37 29 -43 29 -7 0 -27 20 -45 45 -18 25 -47 56 -66 71 -18 14 -50 41
-70 60 -29 27 -33 35 -21 40 8 3 18 21 22 40 3 19 10 37 15 40 14 8 11 44 -4
44 -7 0 -26 14 -42 30 -29 30 -77 41 -90 20 -3 -5 -15 -15 -25 -20 -18 -10
-19 -8 -10 15 39 103 -41 215 -165 230 -103 13 -189 -16 -243 -84 -57 -70 -66
-99 -66 -201 -1 -86 2 -100 28 -150 73 -137 86 -167 86 -200 0 -97 -93 -107
-149 -16 -10 17 -33 84 -50 148 -36 132 -53 177 -86 226 -17 25 -22 43 -18 68
5 30 0 38 -52 89 -39 39 -62 54 -74 50 -9 -3 1 8 21 25 20 17 39 43 43 60 4
17 11 30 16 30 24 0 59 50 59 85 0 19 2 35 4 35 3 0 17 -11 32 -25 33 -30 65
-29 79 3 5 12 18 22 28 22 22 0 34 27 18 43 -23 23 -13 36 18 21 50 -25 113
17 90 59 -8 13 -14 15 -29 7 -28 -15 -45 -4 -70 50 -16 34 -33 54 -59 67 -20
10 -49 28 -64 41 -23 18 -41 22 -93 22 -36 0 -75 -5 -86 -11 -16 -9 -23 -8
-29 2 -17 27 -9 39 26 39 24 0 37 6 45 20 15 29 4 40 -32 33 -22 -4 -29 -3
-24 5 4 7 13 12 20 12 24 0 49 38 42 65 -8 30 -31 33 -46 5 -14 -25 -45 -25
-94 -1 -59 31 -87 33 -127 13 -35 -18 -37 -18 -70 0 -44 24 -64 23 -124 -7z
m-759 -723 c43 -30 56 -104 29 -168 -17 -42 -31 -37 -45 16 -6 21 -22 52 -35
68 -24 28 -33 71 -18 85 9 9 55 9 69 -1z m1842 -71 c6 -36 -5 -66 -35 -95
l-28 -28 -22 26 c-27 31 -44 33 -68 6 -27 -30 -29 -18 -5 37 25 59 61 84 115
80 34 -2 41 -6 43 -26z m-2180 -226 c2 -25 48 -125 58 -125 2 0 17 8 31 17 25
17 27 17 21 1 -20 -50 -29 -105 -23 -135 8 -44 -5 -38 -69 35 -44 50 -46 54
-31 75 23 33 19 74 -10 99 -23 20 -24 23 -8 40 22 24 28 23 31 -7z m2129 -297
c-3 -8 -6 -5 -6 6 -1 11 2 17 5 13 3 -3 4 -12 1 -19z m-236 -260 c11 -21 11
-22 -4 -9 -10 7 -17 17 -17 22 0 15 9 10 21 -13z m-471 -204 c95 -17 250 -61
264 -74 5 -5 -154 -9 -355 -9 l-363 -1 48 49 c27 28 61 52 75 55 45 8 242 -4
331 -20z m-1076 -314 c-9 -54 9 -93 57 -124 48 -32 54 -32 95 -1 18 14 35 25
38 25 3 0 5 -143 6 -317 0 -175 4 -334 9 -353 34 -144 96 -257 184 -338 62
-57 212 -154 281 -182 31 -13 56 -28 56 -33 0 -19 -137 1 -202 28 -219 93
-233 98 -295 99 -75 1 -116 -23 -121 -72 -3 -31 -2 -32 33 -32 45 0 43 -16 -5
-42 -41 -21 -180 -26 -180 -6 0 6 9 31 21 54 l20 43 -22 31 c-35 47 -99 73
-164 68 -34 -3 -62 -12 -75 -23 -20 -18 -20 -18 -20 18 0 29 -10 46 -50 90
l-49 54 19 37 c21 43 18 62 -17 92 l-25 21 36 28 36 27 65 -23 c78 -27 85 -35
92 -91 9 -70 35 -102 107 -133 35 -15 69 -26 76 -23 6 2 25 34 42 72 29 67 30
70 14 103 -9 18 -23 36 -31 39 -12 5 -10 11 8 36 15 20 22 45 23 76 0 26 5 56
11 67 12 23 7 45 -10 45 -7 0 -30 16 -52 36 -26 22 -47 34 -61 31 -16 -3 -20
0 -16 15 11 42 -10 91 -58 140 -26 26 -52 48 -57 48 -5 0 -35 -24 -66 -53 -70
-65 -75 -99 -26 -165 39 -53 38 -95 -3 -100 -24 -3 -28 2 -47 53 -38 102 -18
213 59 326 22 32 40 62 40 66 0 5 8 18 18 31 l18 23 16 -35 c21 -42 41 -40 93
11 46 45 54 65 61 169 4 46 11 84 16 84 4 0 5 -18 2 -40z m1776 -202 c28 -27
55 -46 59 -43 5 2 11 -9 15 -27 7 -35 93 -124 129 -134 13 -3 28 -14 35 -24
21 -34 52 -172 52 -232 0 -49 -4 -63 -25 -83 -28 -29 -57 -32 -79 -9 -20 19
-21 13 10 68 43 77 23 132 -64 182 l-33 19 -35 -40 c-48 -56 -75 -108 -63
-126 18 -29 8 -39 -15 -13 -22 26 -25 27 -54 15 -36 -15 -57 -43 -67 -91 -4
-19 -17 -43 -28 -52 -19 -15 -20 -20 -9 -35 7 -10 19 -32 27 -49 8 -17 22 -34
31 -38 14 -5 13 -9 -7 -25 -20 -16 -24 -28 -24 -73 1 -88 5 -92 81 -84 96 10
134 43 134 116 0 32 34 58 105 80 22 7 71 28 108 48 l68 35 20 -20 20 -20 -25
-17 c-31 -20 -35 -68 -10 -105 16 -22 15 -24 -30 -70 -52 -52 -67 -91 -55
-135 l9 -29 -28 25 c-40 38 -93 50 -148 33 -60 -18 -90 -39 -109 -75 -15 -29
-14 -33 10 -73 14 -24 22 -47 18 -50 -3 -4 -37 -7 -75 -7 -103 0 -201 54 -111
62 47 4 54 26 19 62 -61 67 -165 54 -366 -43 -64 -31 -147 -51 -209 -51 -34 1
-30 4 54 48 212 112 321 208 391 344 9 18 28 72 41 122 24 87 25 105 27 386 1
162 5 301 9 307 8 13 54 11 90 -3 14 -5 21 1 30 26 l12 32 7 -43 c6 -34 18
-53 58 -91z"/>
</g>
</svg>
